<svg width="121" height="16" viewBox="0 0 121 16" fill="none" xmlns="http://www.w3.org/2000/svg">
<g clip-path="url(#clip0_1008_2390)">
<path d="M21.9988 0.25H2.55658C1.45528 0.25 0.5625 1.14543 0.5625 2.25V13.75C0.5625 14.8546 1.45528 15.75 2.55658 15.75H21.9988C23.1001 15.75 23.9929 14.8546 23.9929 13.75V2.25C23.9929 1.14543 23.1001 0.25 21.9988 0.25Z" fill="#FEFEFE" stroke="black" stroke-opacity="0.2" stroke-width="0.5"/>
<path d="M3.09298 5.91444C2.57139 5.62751 1.97611 5.39674 1.31055 5.23659L1.33846 5.11188H4.06734C4.43722 5.12489 4.73736 5.23651 4.83502 5.63071L5.42808 8.46659L5.60976 9.32073L7.27081 5.11188H9.0643L6.39831 11.2775H4.60473L3.09298 5.91444ZM10.3836 11.2841H8.68746L9.74833 5.11188H11.4443L10.3836 11.2841ZM16.5321 5.26277L16.3014 6.59559L16.148 6.53004C15.8411 6.40525 15.436 6.28054 14.8846 6.29371C14.215 6.29371 13.9146 6.56277 13.9077 6.82546C13.9077 7.11441 14.271 7.30484 14.8642 7.58725C15.8414 8.02719 16.2947 8.56557 16.2879 9.26819C16.2742 10.5486 15.1155 11.3761 13.3359 11.3761C12.575 11.3694 11.8421 11.2181 11.4442 11.0476L11.6816 9.66205L11.9049 9.76066C12.4563 9.99071 12.8192 10.089 13.4963 10.089C13.9847 10.089 14.5082 9.89838 14.5149 9.48488C14.5149 9.21565 14.2918 9.01851 13.6356 8.71646C12.9936 8.42087 12.1352 7.92848 12.1491 7.04198C12.1564 5.84042 13.3359 5 15.0108 5C15.6669 5 16.1976 5.13789 16.5321 5.26277ZM18.7864 9.09749H20.1962C20.1264 8.78889 19.8052 7.31147 19.8052 7.31147L19.6867 6.77964C19.6029 7.00943 19.4565 7.38373 19.4635 7.37056C19.4635 7.37056 18.9261 8.7429 18.7864 9.09749ZM20.88 5.11188L22.2483 11.284H20.6779C20.6779 11.284 20.5242 10.5748 20.4755 10.3581H18.2979C18.2349 10.5222 17.9419 11.284 17.9419 11.284H16.1622L18.6816 5.62399C18.8561 5.22342 19.1635 5.11188 19.5681 5.11188H20.88Z" fill="#332927"/>
</g>
<g clip-path="url(#clip1_1008_2390)">
<path d="M54.177 0H34.2363C33.135 0 32.2422 0.89543 32.2422 2V14C32.2422 15.1046 33.135 16 34.2363 16H54.177C55.2783 16 56.1711 15.1046 56.1711 14V2C56.1711 0.89543 55.2783 0 54.177 0Z" fill="#332927"/>
<path d="M41.2157 13C43.9689 13 46.2008 10.7614 46.2008 8C46.2008 5.23858 43.9689 3 41.2157 3C38.4624 3 36.2305 5.23858 36.2305 8C36.2305 10.7614 38.4624 13 41.2157 13Z" fill="#EB001B"/>
<path d="M47.1981 13C49.9513 13 52.1833 10.7614 52.1833 8C52.1833 5.23858 49.9513 3 47.1981 3C44.4448 3 42.2129 5.23858 42.2129 8C42.2129 10.7614 44.4448 13 47.1981 13Z" fill="#F79E1B"/>
<path fill-rule="evenodd" clip-rule="evenodd" d="M44.207 3.99951C45.4178 4.91172 46.201 6.36406 46.201 7.99988C46.201 9.6357 45.4178 11.088 44.207 12.0002C42.9961 11.088 42.2129 9.6357 42.2129 7.99988C42.2129 6.36406 42.9961 4.91172 44.207 3.99951Z" fill="#FF5F00"/>
</g>
<g clip-path="url(#clip2_1008_2390)">
<path d="M86.1048 0H66.164C65.0627 0 64.1699 0.89543 64.1699 2V14C64.1699 15.1046 65.0627 16 66.164 16H86.1048C87.2061 16 88.0988 15.1046 88.0988 14V2C88.0988 0.89543 87.2061 0 86.1048 0Z" fill="#016FD0"/>
<path fill-rule="evenodd" clip-rule="evenodd" d="M77.8926 13.3938V7.69238L88.0101 7.70149V9.27638L86.8407 10.5298L88.0101 11.7947V13.403H86.143L85.1508 12.3048L84.1656 13.4071L77.8926 13.3938Z" fill="#FEFEFE"/>
<path fill-rule="evenodd" clip-rule="evenodd" d="M78.5684 12.7687V8.31982H82.3295V9.34471H79.7861V10.0404H82.2688V11.0482H79.7861V11.7315H82.3295V12.7687H78.5684Z" fill="#016FD0"/>
<path fill-rule="evenodd" clip-rule="evenodd" d="M82.3106 12.7686L84.3918 10.5416L82.3105 8.31982H83.9214L85.1931 9.72986L86.4684 8.31982H88.01V8.35483L85.9732 10.5416L88.01 12.7055V12.7686H86.4529L85.1587 11.3444L83.8777 12.7686H82.3106Z" fill="#016FD0"/>
<path fill-rule="evenodd" clip-rule="evenodd" d="M78.3642 2.63184H80.803L81.6596 4.58269V2.63184H84.6705L85.1897 4.09341L85.7107 2.63184H88.0098V8.33323H75.8594L78.3642 2.63184Z" fill="#FEFEFE"/>
<path fill-rule="evenodd" clip-rule="evenodd" d="M78.8275 3.25098L76.8594 7.69615H78.2093L78.5806 6.80598H80.5925L80.9636 7.69615H82.3471L80.3871 3.25098H78.8275ZM78.9967 5.80841L79.5869 4.39334L80.1767 5.80841H78.9967Z" fill="#016FD0"/>
<path fill-rule="evenodd" clip-rule="evenodd" d="M82.3281 7.69557V3.25049L84.2256 3.25703L85.202 5.98976L86.1847 3.25049H88.0109V7.69557L86.8358 7.706V4.65265L85.7265 7.69557H84.6539L83.5216 4.64222V7.69557H82.3281Z" fill="#016FD0"/>
</g>
<g clip-path="url(#clip3_1008_2390)">
<path d="M118.032 15.7499L118.035 15.7499C118.987 15.7581 119.768 14.9773 119.78 14.0042L119.78 2.0063C119.776 1.53569 119.589 1.08617 119.261 0.756802C118.934 0.428269 118.493 0.246149 118.032 0.250071L98.0951 0.250062C97.6369 0.246149 97.1957 0.428269 96.8683 0.756802C96.5402 1.08617 96.3534 1.53569 96.3496 2.00426L96.3496 13.9937C96.3534 14.4643 96.5402 14.9138 96.8683 15.2432C97.1957 15.5717 97.6369 15.7538 98.0972 15.7499H118.032ZM118.031 16.2499C118.031 16.2499 118.031 16.2499 118.03 16.2499L118.032 16.2499H118.031Z" fill="#FEFEFE" stroke="black" stroke-opacity="0.2" stroke-width="0.5"/>
<path d="M108.676 16.0002H118.033C118.558 16.0046 119.063 15.7995 119.438 15.4301C119.812 15.0607 120.025 14.5573 120.03 14.0305V11.6719C116.496 13.7062 112.664 15.167 108.676 16.0002Z" fill="#F27712"/>
<path d="M119.204 9.29643H118.355L117.397 8.03023H117.307V9.29643H116.613V6.15161H117.637C118.437 6.15161 118.899 6.48264 118.899 7.0785C118.899 7.56678 118.61 7.88126 118.09 7.98057L119.204 9.29643ZM118.181 7.10333C118.181 6.79712 117.95 6.63988 117.521 6.63988H117.307V7.59161H117.505C117.95 7.59161 118.181 7.42609 118.181 7.10333ZM114.188 6.15161H116.151V6.68126H114.881V7.38471H116.102V7.92264H114.881V8.77505H116.151V9.30471H114.188V6.15161ZM111.96 9.37919L110.458 6.14333H111.217L112.166 8.26195L113.123 6.14333H113.866L112.348 9.37919H111.976H111.96ZM105.68 9.37092C104.624 9.37092 103.799 8.65092 103.799 7.71574C103.799 6.8054 104.641 6.06885 105.697 6.06885C105.994 6.06885 106.242 6.12678 106.547 6.25919V6.98747C106.316 6.75965 106.005 6.63187 105.68 6.63161C105.02 6.63161 104.517 7.11161 104.517 7.71574C104.517 8.35299 105.012 8.80816 105.713 8.80816C106.027 8.80816 106.266 8.70885 106.547 8.46057V9.18885C106.233 9.32126 105.969 9.37092 105.68 9.37092ZM103.585 8.33643C103.585 8.94885 103.081 9.37092 102.355 9.37092C101.827 9.37092 101.448 9.18885 101.126 8.77505L101.58 8.38609C101.736 8.66747 102 8.80816 102.33 8.80816C102.644 8.80816 102.867 8.61781 102.867 8.36954C102.867 8.22885 102.801 8.12126 102.66 8.0385C102.507 7.96365 102.347 7.90271 102.182 7.85643C101.53 7.64954 101.307 7.42609 101.307 6.98747C101.307 6.47436 101.786 6.0854 102.413 6.0854C102.809 6.0854 103.164 6.20954 103.461 6.44126L103.098 6.85505C102.954 6.69683 102.75 6.60671 102.537 6.60678C102.24 6.60678 102.025 6.75574 102.025 6.95436C102.025 7.11988 102.149 7.21092 102.561 7.35161C103.354 7.59988 103.585 7.83161 103.585 8.34471V8.33643ZM100.177 6.15161H100.87V9.30471H100.177V6.15161ZM97.9489 9.30471H96.9258V6.15161H97.9489C99.0711 6.15161 99.8468 6.79712 99.8468 7.72402C99.8468 8.19574 99.6157 8.64264 99.2114 8.94057C98.8648 9.18885 98.477 9.30471 97.9407 9.30471H97.9489ZM98.7576 6.93781C98.5265 6.75574 98.2625 6.68954 97.8087 6.68954H97.6189V8.77505H97.8087C98.2542 8.77505 98.5348 8.6923 98.7576 8.52678C98.9969 8.32816 99.1371 8.03023 99.1371 7.72402C99.1371 7.41781 98.9969 7.12816 98.7576 6.93781Z" fill="#332927"/>
<path d="M108.476 6.06885C107.569 6.06885 106.826 6.79712 106.826 7.69919C106.826 8.65919 107.536 9.37919 108.476 9.37919C109.401 9.37919 110.127 8.65092 110.127 7.72402C110.127 6.79712 109.409 6.06885 108.476 6.06885Z" fill="#F27712"/>
</g>
<defs>
<clipPath id="clip0_1008_2390">
<rect width="23.9289" height="16" fill="white" transform="translate(0.3125)"/>
</clipPath>
<clipPath id="clip1_1008_2390">
<rect width="23.9289" height="16" fill="white" transform="translate(32.2422)"/>
</clipPath>
<clipPath id="clip2_1008_2390">
<rect width="23.9289" height="16" fill="white" transform="translate(64.1699)"/>
</clipPath>
<clipPath id="clip3_1008_2390">
<rect width="23.9289" height="16" fill="white" transform="translate(96.0996)"/>
</clipPath>
</defs>
</svg>
